<?xml version="1.0" encoding="utf-8"?>
<!-- Generator: Adobe Illustrator 15.0.0, SVG Export Plug-In . SVG Version: 6.00 Build 0)  -->
<!DOCTYPE svg PUBLIC "-//W3C//DTD SVG 1.1//EN" "http://www.w3.org/Graphics/SVG/1.1/DTD/svg11.dtd">
<svg version="1.1" id="Livello_1" xmlns="http://www.w3.org/2000/svg" xmlns:xlink="http://www.w3.org/1999/xlink" x="0px" y="0px"
	 width="841.89px" height="595.28px" viewBox="0 0 841.89 595.28" enable-background="new 0 0 841.89 595.28" xml:space="preserve">
<g>
	<g>
		<radialGradient id="SVGID_1_" cx="49.3643" cy="506.3008" r="28.8773" gradientUnits="userSpaceOnUse">
			<stop  offset="0" style="stop-color:#F2DC8E"/>
			<stop  offset="0.5" style="stop-color:#F0BF00"/>
			<stop  offset="1" style="stop-color:#C9961A"/>
		</radialGradient>
		<path fill="url(#SVGID_1_)" d="M29.409,541.932v-0.992c2.197-0.264,4.239-0.689,6.125-1.283c1.885-0.598,3.487-1.453,4.813-2.574
			c0.435-0.399,0.764-0.956,0.983-1.682c0.216-0.729,0.39-1.584,0.528-2.57c0.129-0.993,0.216-2.036,0.265-3.123
			c0.042-1.087,0.062-2.159,0.062-3.213c0-0.927,0.021-2.177,0.066-3.763c0.042-1.582,0.087-3.313,0.132-5.198
			c0.042-1.878,0.067-3.809,0.067-5.785c0-2.046,0-3.961,0-5.742v-19.299c0-1.187,0-2.375,0-3.566c0-1.185-0.067-2.288-0.2-3.313
			c-0.129-1.022-0.328-1.947-0.594-2.769c-0.265-0.828-0.655-1.473-1.187-1.932c-1.229-1.125-2.74-1.932-4.542-2.429
			c-1.803-0.491-3.845-0.841-6.121-1.038v-0.99h39.38v0.99c-1.848,0.197-3.816,0.563-5.93,1.091
			c-2.105,0.526-3.732,1.588-4.875,3.168c-0.788,1.121-1.204,2.54-1.25,4.252c-0.042,1.718-0.112,3.334-0.199,4.854
			c0,1.647-0.021,3.28-0.062,4.896c-0.046,1.617-0.066,3.254-0.066,4.897c0,1.653,0,3.368,0,5.148c0,1.715,0,3.598,0,5.64v22.374
			c0,1.909,0.041,3.756,0.129,5.536c0.087,1.782,0.486,3.041,1.187,3.759c1.055,1.13,2.724,1.98,5.007,2.574
			c2.28,0.598,4.348,0.96,6.192,1.089v0.992H29.409z"/>
		<radialGradient id="SVGID_2_" cx="124.6362" cy="505.8076" r="43.6465" gradientUnits="userSpaceOnUse">
			<stop  offset="0" style="stop-color:#F2DC8E"/>
			<stop  offset="0.5" style="stop-color:#F0BF00"/>
			<stop  offset="1" style="stop-color:#C9961A"/>
		</radialGradient>
		<path fill="url(#SVGID_2_)" d="M173.503,489.281c-0.705-1.192-1.54-2.429-2.503-3.712c-0.968-1.287-1.956-2.492-2.961-3.613
			c-1.014-1.12-2.001-2.159-2.965-3.117c-0.967-0.959-1.802-1.665-2.508-2.132c-1.84-1.315-3.837-2.191-5.992-2.615
			c-2.151-0.432-4.895-0.68-8.226-0.747c-1.678,0-3.123-0.017-4.352-0.049c-1.229-0.033-2.458-0.05-3.683-0.05
			c-1.146,0-2.421,0-3.824,0c-1.317,0-2.944,0-4.875,0c0,1.652-0.021,3.895-0.066,6.73c-0.042,2.835-0.067,5.806-0.067,8.906
			c0,3.104,0,6.17,0,9.206c0,2.968,0,5.477,0,7.519v21.974c0,1.915,0.067,3.745,0.204,5.494c0.129,1.747,0.544,2.985,1.25,3.712
			c1.317,1.453,3.182,2.438,5.598,2.97c2.413,0.527,4.588,0.919,6.519,1.183v0.992h-42.809v-0.992
			c2.284-0.196,4.479-0.524,6.584-0.984c2.11-0.465,4.173-1.549,6.195-3.272c0.44-0.323,0.769-0.871,0.984-1.627
			c0.22-0.761,0.398-1.62,0.527-2.574c0.134-0.955,0.217-1.993,0.267-3.118c0.041-1.121,0.062-2.21,0.062-3.266
			c0-0.924,0.024-2.145,0.066-3.665c0.046-1.517,0.087-3.198,0.137-5.045c0.037-1.848,0.062-3.767,0.062-5.743
			c0-1.976,0-3.857,0-5.639v-32.76c-1.844,0-3.467,0-4.871,0c-1.32,0-2.595,0-3.82,0c-1.146,0-2.35,0.017-3.621,0.05
			c-1.275,0.032-2.749,0.049-4.414,0.049c-3.342,0.067-6.082,0.366-8.238,0.89c-2.151,0.53-4.144,1.453-5.992,2.771
			c-0.706,0.458-1.511,1.154-2.433,2.077s-1.894,1.928-2.902,3.022c-1.009,1.088-1.968,2.261-2.895,3.509
			c-0.922,1.259-1.648,2.475-2.175,3.667l-1.183-0.299l3.953-18.802c2.019,0.332,3.883,0.59,5.593,0.788
			c1.715,0.196,4.198,0.332,7.445,0.396c3.338,0.067,6.324,0.12,8.956,0.153c2.633,0.034,5.182,0.045,7.64,0.045
			c2.458,0,4.958,0,7.507,0c2.637,0,5.577,0,8.829,0c3.243,0,6.145,0,8.69,0c2.637,0,5.182-0.011,7.64-0.045
			c2.455-0.033,5.004-0.067,7.641-0.104c2.632-0.028,5.618-0.049,8.956-0.049c2.898-0.063,5.286-0.246,7.175-0.545
			c1.893-0.294,3.84-0.673,5.867-1.136l4.21,19.299L173.503,489.281z"/>
		<radialGradient id="SVGID_3_" cx="219.3384" cy="505.6074" r="44.0307" gradientUnits="userSpaceOnUse">
			<stop  offset="0" style="stop-color:#F2DC8E"/>
			<stop  offset="0.5" style="stop-color:#F0BF00"/>
			<stop  offset="1" style="stop-color:#C9961A"/>
		</radialGradient>
		<path fill="url(#SVGID_3_)" d="M231.457,541.932v-0.992c0.261,0,0.901-0.062,1.915-0.196c1.004-0.127,2.055-0.366,3.155-0.692
			c1.097-0.327,2.064-0.794,2.898-1.383c0.835-0.594,1.25-1.354,1.25-2.275c0-0.6-0.24-1.57-0.722-2.923
			c-0.482-1.353-1.163-3.002-2.039-4.95c-0.885-1.943-1.894-4.103-3.031-6.482c-1.146-2.374-2.371-4.85-3.688-7.424h-35.037
			c-1.316,2.513-2.591,4.905-3.819,7.181c-1.234,2.275-2.463,4.565-3.688,6.874c-1.848,3.564-2.766,6.071-2.766,7.525
			c0,0.855,0.345,1.568,1.051,2.125c0.706,0.561,1.603,1.022,2.698,1.387c1.102,0.366,2.285,0.627,3.559,0.79
			c1.275,0.166,2.479,0.315,3.621,0.444v0.992h-28.052v-1.087c2.279-0.196,4.235-0.662,5.863-1.389
			c1.624-0.723,2.566-1.216,2.828-1.481c0.614-0.461,1.628-1.55,3.031-3.269c1.409-1.711,3.115-4.252,5.141-7.618
			c1.844-3.103,3.899-6.631,6.187-10.592c2.28-3.958,4.63-8.032,7.046-12.225c2.416-4.186,4.808-8.409,7.179-12.665
			c2.372-4.259,4.609-8.234,6.719-11.929l-1.32-2.177c1.581-0.526,3.01-1.148,4.28-1.881c1.271-0.722,2.392-1.483,3.364-2.275
			c0.959-0.788,1.777-1.549,2.433-2.275c0.656-0.721,1.163-1.32,1.516-1.786h1.055c2.72,5.481,5.314,10.676,7.773,15.593
			c2.454,4.911,4.808,9.645,7.042,14.205c2.242,4.55,4.413,8.951,6.519,13.208c2.11,4.256,4.214,8.463,6.324,12.617
			c0.967,2.047,1.864,3.747,2.703,5.1c0.83,1.354,1.772,2.89,2.832,4.602c0.174,0.267,0.569,0.727,1.184,1.388
			c0.615,0.659,1.428,1.335,2.437,2.028c1.009,0.691,2.259,1.301,3.757,1.827c1.491,0.526,3.243,0.825,5.261,0.893v1.188H231.457z
			 M214.204,481.956c-0.527,0.855-1.295,2.208-2.304,4.054c-1.013,1.852-2.263,4.093-3.758,6.734
			c-1.491,2.64-3.138,5.621-4.937,8.957c-1.798,3.329-3.754,6.942-5.864,10.837h32.799c-1.495-2.969-3.011-5.938-4.542-8.907
			c-1.536-2.968-3.032-5.822-4.477-8.561c-1.453-2.742-2.77-5.25-3.953-7.524C215.981,485.271,214.994,483.406,214.204,481.956z"/>
		<radialGradient id="SVGID_4_" cx="314.8984" cy="506.3008" r="40.4304" gradientUnits="userSpaceOnUse">
			<stop  offset="0" style="stop-color:#F2DC8E"/>
			<stop  offset="0.5" style="stop-color:#F0BF00"/>
			<stop  offset="1" style="stop-color:#C9961A"/>
		</radialGradient>
		<path fill="url(#SVGID_4_)" d="M354.741,541.932h-84.561v-0.992c2.192-0.264,4.364-0.689,6.519-1.283
			c2.146-0.598,3.837-1.416,5.075-2.476c0.435-0.394,0.805-0.971,1.121-1.731c0.303-0.758,0.544-1.633,0.719-2.619
			c0.178-0.993,0.328-2.036,0.46-3.123c0.133-1.087,0.2-2.159,0.2-3.213c0-0.927,0.021-2.177,0.066-3.763
			c0.046-1.582,0.083-3.313,0.132-5.198c0.038-1.878,0.063-3.809,0.063-5.785c0-2.046,0-3.961,0-5.742v-19.2
			c0-1.191,0-2.343,0-3.467c0-1.188-0.063-2.287-0.195-3.309c-0.133-1.029-0.328-1.936-0.594-2.729
			c-0.261-0.788-0.66-1.416-1.183-1.879c-1.229-1.121-2.878-1.977-4.941-2.574c-2.068-0.59-4.234-0.99-6.519-1.188v-0.99h42.017
			v0.99c-1.141,0.136-2.504,0.332-4.085,0.598c-1.578,0.265-3.073,0.688-4.477,1.287c-1.403,0.592-2.612,1.433-3.625,2.523
			c-1.009,1.087-1.557,2.525-1.644,4.302c-0.087,2.312-0.158,4.422-0.195,6.337c-0.05,1.914-0.087,3.794-0.133,5.64
			c-0.046,1.851-0.066,3.762-0.066,5.742c0,1.977,0,4.188,0,6.632c0,2.241,0,4.288,0,6.134c0,1.782,0,3.531,0,5.246
			s0.021,3.479,0.066,5.294c0.046,1.819,0.066,3.844,0.066,6.086c0.087,2.11,0.199,4.121,0.328,6.037
			c0.129,1.917,0.594,3.333,1.382,4.254c0.35,0.336,1.056,0.663,2.11,0.996c1.051,0.328,2.325,0.606,3.815,0.84
			c1.496,0.232,3.114,0.43,4.879,0.598c1.756,0.165,3.508,0.243,5.261,0.243c0.706,0,1.827-0.015,3.363-0.052
			c1.533-0.026,3.227-0.102,5.07-0.191c1.848-0.101,3.733-0.25,5.664-0.448c1.931-0.201,3.642-0.467,5.141-0.79
			c3.508-0.727,6.432-1.69,8.756-2.873c2.326-1.188,4.323-2.558,5.992-4.111c1.669-1.543,3.078-3.229,4.215-5.044
			c1.142-1.815,2.242-3.71,3.292-5.693l1.321,0.299L354.741,541.932z"/>
		<radialGradient id="SVGID_5_" cx="384.9688" cy="506.3008" r="28.8772" gradientUnits="userSpaceOnUse">
			<stop  offset="0" style="stop-color:#F2DC8E"/>
			<stop  offset="0.5" style="stop-color:#F0BF00"/>
			<stop  offset="1" style="stop-color:#C9961A"/>
		</radialGradient>
		<path fill="url(#SVGID_5_)" d="M365.014,541.932v-0.992c2.197-0.264,4.235-0.689,6.121-1.283c1.889-0.598,3.491-1.453,4.812-2.574
			c0.437-0.399,0.764-0.956,0.988-1.682c0.216-0.729,0.394-1.584,0.523-2.57c0.133-0.993,0.221-2.036,0.266-3.123
			c0.046-1.087,0.066-2.159,0.066-3.213c0-0.927,0.017-2.177,0.066-3.763c0.041-1.582,0.087-3.313,0.129-5.198
			c0.046-1.878,0.066-3.809,0.066-5.785c0-2.046,0-3.961,0-5.742v-19.299c0-1.187,0-2.375,0-3.566c0-1.185-0.066-2.288-0.195-3.313
			c-0.133-1.022-0.328-1.947-0.594-2.769c-0.266-0.828-0.656-1.473-1.184-1.932c-1.238-1.125-2.749-1.932-4.542-2.429
			c-1.803-0.491-3.846-0.841-6.129-1.038v-0.99h39.38v0.99c-1.84,0.197-3.816,0.563-5.926,1.091
			c-2.109,0.526-3.732,1.588-4.871,3.168c-0.793,1.121-1.212,2.54-1.25,4.252c-0.05,1.718-0.112,3.334-0.203,4.854
			c0,1.647-0.021,3.28-0.062,4.896c-0.05,1.617-0.062,3.254-0.062,4.897c0,1.653,0,3.368,0,5.148c0,1.715,0,3.598,0,5.64v22.374
			c0,1.909,0.038,3.756,0.125,5.536c0.091,1.782,0.481,3.041,1.188,3.759c1.058,1.13,2.725,1.98,5.007,2.574
			c2.283,0.598,4.343,0.96,6.191,1.089v0.992H365.014z"/>
		<radialGradient id="SVGID_6_" cx="461.2266" cy="505.7598" r="41.5729" gradientUnits="userSpaceOnUse">
			<stop  offset="0" style="stop-color:#F2DC8E"/>
			<stop  offset="0.5" style="stop-color:#F0BF00"/>
			<stop  offset="1" style="stop-color:#C9961A"/>
		</radialGradient>
		<path fill="url(#SVGID_6_)" d="M505.679,493.632c-1.138-3.163-2.853-6.135-5.132-8.911c-2.284-2.765-4.987-5.172-8.102-7.22
			c-3.117-2.046-6.631-3.657-10.539-4.846c-3.906-1.187-8.055-1.784-12.443-1.784c-6.062,0-11.46,1.021-16.201,3.067
			c-4.741,2.048-8.717,4.755-11.922,8.119c-3.209,3.362-5.664,7.173-7.375,11.43c-1.715,4.256-2.57,8.625-2.57,13.112
			c0,4.75,0.902,9.205,2.701,13.358c1.801,4.16,4.367,7.772,7.705,10.836c3.335,3.075,7.377,5.5,12.12,7.28
			c4.739,1.776,10.007,2.669,15.804,2.669c4.563,0,8.846-0.622,12.843-1.875c3.994-1.256,7.549-2.907,10.667-4.954
			c3.119-2.044,5.747-4.405,7.901-7.08c2.152-2.666,3.62-5.423,4.414-8.259h1.579l-0.391,21.774h-1.582
			c-1.054-1.125-2.152-2.146-3.292-3.073c-1.144-0.917-1.936-1.382-2.372-1.382c-0.18,0-0.968,0.349-2.371,1.038
			c-1.406,0.697-3.426,1.453-6.062,2.279c-2.634,0.825-5.84,1.548-9.613,2.176c-3.778,0.626-8.122,0.943-13.042,0.943
			c-8.164,0-15.542-0.878-22.127-2.626c-6.585-1.743-12.182-4.222-16.792-7.424c-4.614-3.198-8.146-7.023-10.605-11.484
			c-2.458-4.446-3.688-9.352-3.688-14.69c0-1.188,0.108-2.541,0.333-4.062c0.215-1.521,0.611-3.131,1.183-4.85
			c0.57-1.715,1.364-3.512,2.372-5.391c1.009-1.883,2.306-3.777,3.886-5.692c1.844-2.241,4.128-4.388,6.852-6.435
			c2.717-2.048,5.926-3.841,9.613-5.396c3.688-1.547,7.855-2.785,12.511-3.71c4.652-0.923,9.878-1.384,15.678-1.384
			c5.265,0,9.879,0.36,13.827,1.093c3.949,0.721,7.241,1.515,9.879,2.374c2.638,0.855,4.654,1.646,6.058,2.374
			c1.406,0.726,2.191,1.09,2.37,1.09c0.176,0,0.503-0.155,0.994-0.449c0.482-0.299,1.005-0.655,1.577-1.089
			c0.567-0.426,1.161-0.921,1.778-1.486c0.612-0.556,1.186-1.133,1.715-1.73h1.443v22.17L505.679,493.632z"/>
		<radialGradient id="SVGID_7_" cx="566.9277" cy="506.0547" r="43.3723" gradientUnits="userSpaceOnUse">
			<stop  offset="0" style="stop-color:#F2DC8E"/>
			<stop  offset="0.5" style="stop-color:#F0BF00"/>
			<stop  offset="1" style="stop-color:#C9961A"/>
		</radialGradient>
		<path fill="url(#SVGID_7_)" d="M612.372,520.457c-2.638,4.482-6.217,8.38-10.734,11.675c-4.526,3.303-9.796,5.843-15.809,7.625
			c-6.016,1.775-12.402,2.668-19.166,2.668c-6.673,0-12.996-0.87-18.965-2.619c-5.974-1.752-11.197-4.228-15.673-7.424
			c-4.485-3.198-8.018-7.027-10.606-11.48c-2.589-4.457-3.882-9.352-3.882-14.7c0-5.677,1.358-10.765,4.084-15.289
			c2.72-4.521,6.385-8.345,10.998-11.481c4.609-3.135,10.006-5.54,16.202-7.224c6.187-1.682,12.704-2.523,19.553-2.523
			c7.465,0,14.163,0.986,20.093,2.972c5.925,1.977,10.948,4.635,15.076,7.964c4.123,3.33,7.288,7.177,9.484,11.537
			c2.197,4.351,3.292,8.9,3.292,13.651C616.319,511.088,615.004,515.972,612.372,520.457z M597.947,493.732
			c-1.368-4.087-3.427-7.801-6.188-11.137c-2.771-3.329-6.217-6.032-10.344-8.113c-4.128-2.079-9.004-3.118-14.619-3.118
			c-5.716,0-10.647,1.039-14.82,3.118c-4.17,2.081-7.596,4.768-10.272,8.064c-2.683,3.301-4.655,7.042-5.926,11.234
			c-1.275,4.195-1.915,8.43-1.915,12.723c0,4.485,0.703,8.805,2.115,12.955c1.402,4.166,3.481,7.823,6.254,10.995
			c2.765,3.165,6.235,5.705,10.405,7.62c4.167,1.914,9.022,2.865,14.552,2.865c5.537,0,10.34-1.052,14.425-3.168
			c4.078-2.105,7.483-4.829,10.207-8.163c2.72-3.331,4.758-7.076,6.126-11.232c1.355-4.157,2.037-8.31,2.037-12.47
			C599.984,501.885,599.303,497.827,597.947,493.732z"/>
		<radialGradient id="SVGID_8_" cx="675.3291" cy="506.252" r="43.3122" gradientUnits="userSpaceOnUse">
			<stop  offset="0" style="stop-color:#F2DC8E"/>
			<stop  offset="0.5" style="stop-color:#F0BF00"/>
			<stop  offset="1" style="stop-color:#C9961A"/>
		</radialGradient>
		<path fill="url(#SVGID_8_)" d="M698.114,541.932c-0.788-0.594-1.357-1.039-1.707-1.338c-0.353-0.299-0.751-0.639-1.187-1.038
			c-0.44-0.393-0.988-0.972-1.649-1.73c-0.659-0.756-1.688-1.897-3.093-3.414c-1.669-1.846-3.139-3.513-4.414-4.999
			c-1.274-1.487-2.569-2.951-3.886-4.405c-1.317-1.449-2.75-2.918-4.278-4.4c-1.539-1.487-3.362-3.157-5.471-4.999
			c-1.753-1.521-3.668-2.934-5.727-4.258c-2.063-1.32-4.24-2.143-6.522-2.471c-1.667-0.266-2.94-0.396-3.816-0.396
			c-0.788,0-1.799-0.033-3.032-0.101c0,4.292,0,8.014,0,11.182s0.047,5.838,0.133,8.018c0.088,2.115,0.176,3.923,0.262,5.447
			c0.088,1.514,0.573,2.765,1.449,3.759c0.702,0.855,2.064,1.731,4.082,2.619c2.018,0.889,4.832,1.404,8.434,1.533v0.992h-42.15
			v-0.992c2.193-0.264,4.303-0.655,6.32-1.183c2.019-0.532,3.605-1.322,4.742-2.376c0.439-0.399,0.793-0.988,1.058-1.786
			c0.258-0.788,0.458-1.681,0.594-2.669c0.126-0.988,0.237-2.048,0.329-3.168c0.082-1.117,0.129-2.21,0.129-3.264
			c0-0.927,0.021-2.177,0.065-3.763c0.047-1.582,0.084-3.313,0.135-5.198c0.037-1.878,0.062-3.809,0.062-5.785
			c0-2.046,0-3.961,0-5.742v-19.299c0-1.187-0.024-2.394-0.062-3.613c-0.051-1.22-0.135-2.374-0.268-3.461
			c-0.133-1.093-0.353-2.085-0.655-2.975c-0.312-0.889-0.727-1.531-1.25-1.928c-1.32-1.054-2.791-1.763-4.414-2.129
			c-1.627-0.361-3.62-0.677-5.991-0.941v-0.99c0.697,0,2.5,0,5.397,0c2.981,0,6.366-0.016,10.145-0.049
			c3.771-0.03,7.549-0.049,11.326-0.049c3.771,0,6.849,0,9.219,0c5.885,0,11.104,0.131,15.671,0.396
			c4.567,0.267,8.741,1.154,12.515,2.675c3.866,1.517,6.984,3.579,9.354,6.184c2.367,2.611,3.556,5.888,3.556,9.848
			c0,2.443-0.595,4.635-1.779,6.583c-1.186,1.946-2.768,3.661-4.74,5.145c-1.977,1.485-4.286,2.762-6.918,3.811
			c-2.628,1.06-5.398,1.947-8.292,2.67v0.299c1.487,0.594,2.94,1.453,4.339,2.576c1.407,1.121,2.769,2.374,4.086,3.76
			c2.284,2.51,4.764,5.212,7.44,8.113c2.679,2.907,5.073,5.48,7.179,7.725c3.249,3.43,6.411,5.938,9.488,7.519
			c3.065,1.582,6.674,2.608,10.797,3.065v0.992H698.114z M685.081,480.275c-2.2-2.574-5.405-4.622-9.622-6.139
			c-2.104-0.725-4.32-1.248-6.65-1.58c-2.321-0.333-4.764-0.499-7.304-0.499c-1.848,0-3.344,0.033-4.481,0.099
			c-1.146,0.067-2.021,0.135-2.636,0.2c-0.088,0.395-0.176,0.738-0.262,1.039c-0.092,0.299-0.153,0.672-0.203,1.138
			c-0.038,0.459-0.088,1.104-0.126,1.935c-0.048,0.822-0.115,1.991-0.203,3.509c-0.086,2.312-0.149,4.916-0.194,7.819
			c-0.047,2.906-0.067,5.705-0.067,8.41c0,2.708,0,5.085,0,7.126c0,1.982,0,3.233,0,3.763c3.6,0,6.961-0.118,10.078-0.346
			c3.114-0.231,6.125-0.71,9.02-1.435c2.811-0.661,5.223-1.551,7.246-2.675c2.021-1.117,3.664-2.388,4.94-3.808
			c1.271-1.42,2.218-2.957,2.836-4.606c0.604-1.647,0.917-3.362,0.917-5.145C688.369,485.782,687.269,482.846,685.081,480.275z"/>
		<radialGradient id="SVGID_9_" cx="769.5039" cy="506.3008" r="39.8162" gradientUnits="userSpaceOnUse">
			<stop  offset="0" style="stop-color:#F2DC8E"/>
			<stop  offset="0.5" style="stop-color:#F0BF00"/>
			<stop  offset="1" style="stop-color:#C9961A"/>
		</radialGradient>
		<path fill="url(#SVGID_9_)" d="M806.519,541.932h-80.617v-0.992c2.197-0.264,4.239-0.689,6.13-1.283
			c1.888-0.598,3.446-1.416,4.675-2.476c0.436-0.394,0.789-0.971,1.054-1.731c0.262-0.758,0.503-1.633,0.723-2.619
			c0.221-0.993,0.374-2.036,0.462-3.123c0.092-1.087,0.133-2.159,0.133-3.213c0-0.927,0.021-2.177,0.065-3.763
			c0.043-1.582,0.088-3.313,0.129-5.198c0.047-1.878,0.07-3.809,0.07-5.785c0-2.046,0-3.961,0-5.742v-19.299
			c0-1.187-0.023-2.408-0.07-3.663c-0.041-1.254-0.129-2.44-0.262-3.561c-0.129-1.123-0.354-2.126-0.656-3.016
			c-0.312-0.896-0.723-1.537-1.253-1.935c-1.317-1.056-2.72-1.732-4.211-2.031c-1.5-0.295-3.43-0.577-5.8-0.842v-0.99h72.702
			l8.961,16.336l-1.312,0.491c-7.117-6.661-13.786-11.145-20.023-13.463c-1.494-0.523-4.261-0.988-8.298-1.379
			c-4.044-0.397-8.955-0.598-14.757-0.598c-1.843,0-3.75,0.051-5.727,0.149c-1.976,0.099-3.403,0.215-4.279,0.35
			c-0.176,1.054-0.328,3.229-0.465,6.526c-0.125,3.307-0.196,7.129-0.196,11.485c0,2.509,0,4.617,0,6.328
			c0,1.719,0.021,3.124,0.071,4.211c0.037,1.087,0.062,1.93,0.062,2.523c0,0.533,0,0.89,0,1.09c0.44,0,1.316,0,2.638,0
			c1.312,0,2.826-0.034,4.541-0.102c1.711-0.067,3.422-0.149,5.133-0.244c1.715-0.104,3.143-0.245,4.286-0.445
			c2.632-0.465,4.825-1.093,6.585-1.885c1.756-0.788,3.181-1.744,4.281-2.873c1.097-1.117,1.977-2.417,2.632-3.904
			c0.663-1.486,1.252-3.149,1.784-4.998h1.576v31.175h-1.576c-0.706-2.108-1.784-4.29-3.233-6.532
			c-1.448-2.238-2.965-3.923-4.542-5.047c-1.408-0.927-3.093-1.684-5.069-2.271c-1.982-0.599-4.281-0.961-6.919-1.09
			c-1.315-0.068-2.416-0.115-3.292-0.153c-0.876-0.027-1.758-0.05-2.634-0.05c-0.792,0-1.668,0-2.632,0c-0.884,0-2.021,0-3.426,0
			c-0.182,0.927-0.266,2.275-0.266,4.058c0,1.785,0,3.627,0,5.548c0,0.855,0,1.842,0,2.963c0,1.122,0,2.247,0,3.364
			c0,1.059,0.021,2.067,0.071,3.024c0.037,0.952,0.062,1.767,0.062,2.424c0.088,2.107,0.241,4.106,0.461,5.985
			c0.221,1.88,0.724,3.28,1.512,4.207c0.794,0.927,2.683,1.582,5.667,1.977c2.981,0.399,6.238,0.598,9.746,0.598
			c1.49,0,3.405-0.033,5.73-0.099c2.324-0.065,4.762-0.229,7.311-0.499c2.814-0.262,5.396-0.771,7.772-1.532
			c2.367-0.754,4.649-1.83,6.851-3.217c2.192-1.382,4.318-3.078,6.387-5.096c2.059-2.01,4.193-4.438,6.387-7.274l1.453,0.299
			L806.519,541.932z"/>
	</g>
	<g>
		<radialGradient id="SVGID_10_" cx="418.0605" cy="241.3965" r="74.0665" gradientUnits="userSpaceOnUse">
			<stop  offset="0" style="stop-color:#F2DC8E"/>
			<stop  offset="0.5" style="stop-color:#F0BF00"/>
			<stop  offset="1" style="stop-color:#C9961A"/>
		</radialGradient>
		<path fill="url(#SVGID_10_)" d="M427.974,226.287c0-4.244,0-8.333,0-12.274c0-3.933,0.024-7.823,0.079-11.685
			c0.062-3.853,0.088-7.752,0.088-11.688c0.115-3.621,0.211-7.47,0.269-11.564c0-0.129,0.013-0.245,0.013-0.37
			c0.2-0.008,0.387-0.024,0.589-0.024c5.843,0,11.357,1.058,16.561,3.155c5.19,2.102,9.864,4.966,14.01,8.587
			c4.144,3.625,7.739,7.88,10.775,12.776c3.035,4.912,5.307,10.169,6.831,15.774l2.1-0.179v-39.238h-1.922
			c-0.706,1.054-1.467,2.083-2.275,3.072c-0.822,0.984-1.612,1.864-2.374,2.621c-0.753,0.759-1.463,1.403-2.099,1.939
			c-0.647,0.515-1.083,0.785-1.312,0.785c-0.232,0-1.285-0.648-3.149-1.931c-1.87-1.284-4.557-2.683-8.061-4.207
			c-3.505-1.52-7.89-2.919-13.139-4.202c-4.741-1.154-10.201-1.79-16.36-1.905c0.247-2.62,0.732-4.892,1.477-6.802
			c1.522-3.778,3.682-6.299,6.485-7.557c2.799-1.262,5.425-2.122,7.883-2.595v-2.367h-52.375v2.367
			c3.023,0.473,5.738,1.296,8.142,2.475c2.389,1.191,4.407,3.114,6.038,5.788c0.706,1.1,1.229,2.633,1.579,4.592
			c0.31,1.777,0.557,3.746,0.73,5.896c-0.951,0.199-1.922,0.391-2.835,0.63c-6.196,1.633-11.739,3.829-16.647,6.569
			c-4.907,2.749-9.167,5.93-12.789,9.546c-3.62,3.625-6.656,7.42-9.106,11.39c-2.102,3.388-3.832,6.747-5.165,10.068
			c-1.354,3.331-2.4,6.511-3.16,9.555c-0.76,3.031-1.292,5.896-1.574,8.574c-0.291,2.69-0.445,5.087-0.445,7.184
			c0,9.462,1.64,18.137,4.908,26.017c3.272,7.877,7.972,14.658,14.101,20.321c6.137,5.664,13.578,10.048,22.338,13.142
			c3.187,1.118,6.52,2.044,9.986,2.754c-0.033,0.46-0.048,0.935-0.082,1.39c-0.179,2.363-0.411,4.409-0.699,6.143
			c-0.29,1.729-0.734,3.063-1.311,4.005c-1.76,2.679-3.895,4.719-6.395,6.139c-2.513,1.42-5.228,2.441-8.146,3.071v2.359h53.078
			v-2.359c-2.45-0.318-5.194-1.178-8.234-2.603c-3.035-1.412-5.253-3.446-6.661-6.141c-0.934-1.724-1.461-4.709-1.576-8.963
			c-0.008-0.385-0.008-0.778-0.018-1.161c6.324-0.03,11.946-0.581,16.833-1.661c5.021-1.107,9.284-2.396,12.785-3.853
			c3.501-1.458,6.187-2.803,8.059-4.032c1.864-1.225,2.92-1.835,3.153-1.835c0.581,0,1.641,0.823,3.159,2.455
			c1.507,1.635,2.978,3.441,4.377,5.435h2.092l0.532-38.541h-2.102c-1.054,5.016-3.002,9.891-5.861,14.624
			c-2.87,4.73-6.37,8.903-10.51,12.523c-4.152,3.621-8.877,6.536-14.201,8.761c-5.311,2.217-11.003,3.326-17.074,3.326
			c-0.44,0-0.868-0.024-1.307-0.037c-0.051-3.002-0.085-6.058-0.085-9.227v-53.347C427.974,234.869,427.974,230.385,427.974,226.287
			z M408.339,297.634c-6.304-3.155-11.677-7.449-16.111-12.875c-4.438-5.439-7.86-11.83-10.248-19.184
			c-2.396-7.362-3.595-15.247-3.595-23.646c0-7.948,1.146-15.68,3.417-23.211c2.275-7.537,5.543-14.28,9.816-20.234
			c4.26-5.963,9.541-10.747,15.848-14.367c0.448-0.258,0.912-0.485,1.364-0.727c0.021,0.914,0.041,1.81,0.041,2.766
			c0,2.832,0,5.676,0,8.5v46.031c0,4.248,0,8.815,0,13.699c0,4.713-0.021,9.317-0.082,13.807c-0.056,4.488-0.118,8.624-0.18,12.398
			c-0.054,3.771-0.078,6.764-0.078,8.965c0,2.521-0.034,5.078-0.092,7.674c-0.009,0.149-0.013,0.294-0.013,0.444
			C408.395,297.66,408.371,297.647,408.339,297.634z"/>
		<g>
			<radialGradient id="SVGID_11_" cx="420.3486" cy="241.3965" r="189.4331" gradientUnits="userSpaceOnUse">
				<stop  offset="0" style="stop-color:#F2DC8E"/>
				<stop  offset="0.5" style="stop-color:#F0BF00"/>
				<stop  offset="1" style="stop-color:#C9961A"/>
			</radialGradient>
			<path fill="url(#SVGID_11_)" d="M420.351,430.83l-47.693-47.693c-22.044-7.398-41.572-19.498-58.065-35.985
				c-16.488-16.491-28.588-36.014-35.983-58.062l-47.693-47.693l47.697-47.697c7.387-22.035,19.482-41.559,35.979-58.057
				c16.501-16.492,36.025-28.592,58.057-35.983l47.697-47.697l47.696,47.693c22.036,7.391,41.559,19.49,58.058,35.983
				c16.49,16.493,28.592,36.02,35.985,58.065l47.695,47.692l-47.699,47.698c-7.386,22.034-19.485,41.559-35.981,58.058
				c-16.499,16.491-36.017,28.592-58.054,35.982L420.351,430.83z M246.355,241.396l41.817,41.818l0.403,1.241
				c6.814,20.912,18.167,39.405,33.741,54.976c15.571,15.57,34.069,26.924,54.976,33.742l1.242,0.401l41.817,41.816l41.821-41.819
				l1.24-0.404c20.896-6.809,39.39-18.161,54.97-33.736c15.579-15.583,26.93-34.073,33.732-54.972l0.407-1.241l41.82-41.822
				l-41.816-41.817l-0.403-1.241c-6.814-20.906-18.165-39.404-33.74-54.976c-15.58-15.579-34.073-26.932-54.977-33.741l-1.24-0.403
				l-41.818-41.817l-41.818,41.821l-1.246,0.402c-20.894,6.81-39.388,18.162-54.967,33.738
				c-15.583,15.583-26.932,34.077-33.733,54.972l-0.406,1.241L246.355,241.396z"/>
		</g>
		<g>
			<radialGradient id="SVGID_12_" cx="420.3486" cy="241.3965" r="140.3032" gradientUnits="userSpaceOnUse">
				<stop  offset="0" style="stop-color:#F2DC8E"/>
				<stop  offset="0.5" style="stop-color:#F0BF00"/>
				<stop  offset="1" style="stop-color:#C9961A"/>
			</radialGradient>
			<path fill="url(#SVGID_12_)" d="M420.351,381.7l-35.327-35.322c-16.322-5.48-30.789-14.445-43-26.653
				c-12.212-12.213-21.177-26.674-26.653-43.001l-35.324-35.328l35.328-35.326c5.469-16.318,14.429-30.781,26.649-43.001
				c12.22-12.211,26.682-21.176,42.997-26.648l35.327-35.328l35.326,35.328c16.317,5.468,30.786,14.433,43.001,26.648
				c12.213,12.212,21.176,26.678,26.653,43.005l35.324,35.323l-35.328,35.328c-5.47,16.318-14.433,30.78-26.649,43.001
				c-12.215,12.212-26.678,21.176-42.995,26.649L420.351,381.7z M291.481,241.396l30.972,30.968l0.299,0.926
				c5.045,15.483,13.453,29.182,24.988,40.713c11.535,11.539,25.237,19.943,40.717,24.992l0.921,0.299l30.972,30.973l30.972-30.976
				l0.921-0.299c15.478-5.042,29.174-13.45,40.711-24.989c11.54-11.539,19.95-25.237,24.986-40.713l0.299-0.922l30.976-30.972
				l-30.972-30.967l-0.299-0.926c-5.044-15.479-13.454-29.182-24.99-40.716c-11.537-11.539-25.233-19.948-40.714-24.989
				l-0.921-0.299l-30.973-30.971l-30.972,30.976l-0.922,0.299c-15.476,5.041-29.174,13.449-40.713,24.988
				c-11.539,11.54-19.947,25.238-24.984,40.713l-0.299,0.922L291.481,241.396z"/>
		</g>
	</g>
</g>
</svg>
